#tb 0: 1001/30000
#media_type 0: video
#codec_id 0: rawvideo
#dimensions 0: 128x128
#sar 0: 4/3
0,          0,          0,        1,    24576, 0x303f1dcd
0,          1,          1,        1,    24576, 0x86f70433
0,          2,          2,        1,    24576, 0x1bf34de6
0,          3,          3,        1,    24576, 0xf8dfa33f
0,          4,          4,        1,    24576, 0x4b6bd8f2
